<?xml version="1.0" standalone="no"?>
<!DOCTYPE svg PUBLIC "-//W3C//DTD SVG 20010904//EN"
 "http://www.w3.org/TR/2001/REC-SVG-20010904/DTD/svg10.dtd">
<svg version="1.0" xmlns="http://www.w3.org/2000/svg"
 width="1024.000000pt" height="1024.000000pt" viewBox="0 0 1024.000000 1024.000000"
 preserveAspectRatio="xMidYMid meet">
<metadata>
Created by potrace 1.14, written by Peter Selinger 2001-2017
</metadata>
<g transform="translate(0.000000,1024.000000) scale(0.100000,-0.100000)"
fill="#000000" stroke="none">
<path d="M4962 10067 c-104 -9 -146 -17 -153 -27 -7 -11 -11 -12 -17 -3 -6 9
-23 9 -75 0 -37 -6 -67 -14 -67 -18 0 -4 -9 -5 -20 -2 -11 3 -26 1 -33 -5 -6
-6 -30 -13 -52 -17 -65 -11 -239 -57 -250 -65 -5 -4 -32 -15 -60 -23 -79 -24
-158 -56 -164 -65 -3 -5 -15 -11 -26 -15 -55 -15 -129 -48 -137 -59 -4 -7 -8
-8 -8 -3 0 6 -3 6 -8 -1 -4 -5 -37 -23 -74 -39 -38 -16 -68 -33 -68 -37 0 -3
-35 -23 -77 -44 -43 -20 -82 -43 -88 -50 -5 -7 -21 -18 -35 -24 -29 -11 -41
-19 -127 -77 -35 -24 -67 -43 -72 -43 -5 0 -11 -7 -15 -15 -3 -8 -25 -24 -48
-35 -24 -11 -70 -42 -103 -70 -33 -27 -63 -50 -67 -50 -7 0 -45 -30 -84 -67
-13 -12 -24 -20 -24 -18 0 3 -16 -13 -36 -35 -20 -22 -42 -40 -48 -40 -13 0
-144 -132 -161 -162 -48 -86 -70 -134 -92 -203 -14 -44 -30 -83 -36 -87 -6 -4
-8 -10 -5 -14 4 -3 1 -12 -6 -19 -7 -7 -26 -57 -41 -112 -16 -54 -33 -100 -37
-101 -5 -2 -5 -8 -2 -14 4 -6 0 -14 -7 -19 -10 -6 -11 -11 -3 -19 9 -9 13 -4
19 17 3 15 13 42 20 58 8 17 26 65 40 107 14 43 31 90 37 105 6 16 12 30 13
33 0 3 11 27 23 54 12 27 22 54 22 60 0 6 8 27 19 46 10 19 18 38 17 41 0 4
13 27 31 51 60 84 262 264 403 360 14 10 57 40 95 67 39 28 93 64 122 81 28
17 57 38 63 45 7 8 17 15 23 15 5 0 40 20 76 43 88 58 358 201 446 237 38 15
115 47 170 70 117 50 121 51 285 96 105 29 226 53 405 79 106 15 350 26 470
21 163 -8 442 -42 500 -62 21 -7 41 -11 44 -8 7 7 -33 34 -49 32 -8 0 -22 2
-30 5 -8 3 -79 15 -157 27 -181 26 -487 33 -681 17z"/>
<path d="M5896 9982 c5 -5 50 -18 99 -31 50 -12 104 -29 120 -36 17 -8 62 -25
100 -40 92 -35 330 -149 436 -209 57 -33 288 -174 354 -217 33 -22 72 -47 88
-57 51 -31 192 -131 212 -149 10 -10 33 -26 50 -37 43 -26 161 -130 218 -190
46 -49 127 -199 157 -291 7 -21 24 -64 37 -94 13 -30 36 -88 50 -130 14 -42
30 -81 34 -87 5 -6 24 -58 43 -115 20 -57 56 -160 81 -229 26 -69 82 -226 125
-350 82 -237 118 -330 129 -330 4 0 31 -16 61 -36 30 -20 75 -48 100 -62 25
-13 54 -32 65 -42 11 -10 31 -23 43 -30 13 -6 62 -39 108 -73 46 -34 106 -78
132 -97 112 -80 375 -319 436 -395 l48 -60 -4 -67 c-3 -39 -12 -78 -22 -93
-21 -33 -17 -54 7 -31 35 35 49 158 25 213 -19 41 -83 110 -168 183 -23 19
-58 51 -79 70 -84 77 -216 187 -257 214 -24 15 -44 33 -44 38 0 5 -4 7 -9 4
-5 -3 -11 1 -15 9 -3 8 -10 15 -16 15 -6 0 -41 23 -78 51 -36 28 -81 58 -99
67 -18 9 -33 19 -33 24 0 4 -16 14 -36 23 -20 8 -48 25 -64 37 -15 13 -42 31
-59 40 -17 9 -36 30 -43 45 -6 15 -17 35 -23 43 -7 8 -23 52 -35 98 -13 45
-28 82 -32 82 -5 0 -6 5 -3 10 4 6 1 17 -5 25 -7 8 -9 15 -5 15 4 0 3 6 -3 13
-6 6 -18 39 -27 72 -9 33 -21 77 -27 98 -6 20 -15 37 -20 37 -5 0 -6 5 -3 10
4 6 2 16 -3 23 -6 7 -25 55 -42 107 -17 52 -37 109 -45 126 -8 16 -26 68 -41
114 -14 46 -32 90 -40 97 -8 8 -14 21 -14 30 0 18 -45 152 -70 208 -31 70 -59
139 -65 163 -4 12 -10 22 -16 22 -5 0 -14 20 -20 45 -6 24 -17 50 -25 56 -8 6
-14 17 -14 24 0 7 -7 16 -16 19 -8 3 -12 10 -9 16 3 5 -1 10 -9 10 -9 0 -16 5
-16 12 0 13 -91 101 -136 133 -16 11 -42 32 -57 48 -16 15 -32 27 -36 27 -5 0
-28 17 -52 39 -24 21 -60 47 -79 57 -19 11 -51 34 -70 52 -19 17 -42 32 -51
32 -9 0 -23 7 -30 16 -16 19 -115 84 -129 84 -6 0 -10 4 -10 9 0 5 -21 19 -46
31 -25 12 -66 37 -92 55 -48 33 -147 89 -237 134 -27 14 -51 29 -53 33 -2 5
-10 8 -18 8 -8 0 -14 3 -14 8 0 4 -28 16 -61 26 -33 10 -63 25 -66 32 -2 7
-57 30 -121 51 -64 21 -122 43 -129 49 -13 13 -170 54 -205 54 -12 0 -18 -4
-12 -8z"/>
<path d="M4965 9861 c-49 -4 -124 -15 -165 -24 -41 -9 -120 -23 -175 -32 -55
-9 -108 -21 -117 -26 -10 -5 -27 -9 -37 -9 -11 0 -22 -4 -25 -9 -4 -5 -25 -12
-48 -16 -85 -15 -330 -110 -398 -156 -14 -9 -36 -20 -50 -24 -13 -4 -36 -15
-50 -24 -48 -32 -65 -42 -110 -63 -24 -11 -69 -38 -100 -58 -30 -21 -68 -45
-85 -54 -44 -24 -74 -44 -170 -111 -47 -33 -105 -73 -128 -89 -23 -17 -84 -62
-135 -100 -51 -39 -107 -81 -124 -94 -17 -12 -38 -32 -47 -45 -9 -12 -28 -32
-43 -45 -15 -13 -30 -33 -34 -45 -6 -23 -95 -240 -119 -293 -8 -16 -26 -68
-40 -115 -14 -46 -32 -95 -40 -109 -7 -14 -25 -68 -40 -120 -14 -52 -30 -104
-35 -115 -16 -32 -70 -207 -70 -224 0 -9 -6 -25 -14 -36 -14 -20 -52 -131 -66
-195 -5 -19 -17 -60 -29 -90 -11 -30 -29 -89 -41 -130 -32 -113 -61 -182 -84
-207 -12 -12 -47 -36 -79 -52 -32 -17 -71 -40 -87 -51 -15 -11 -34 -20 -42
-20 -7 0 -38 -16 -68 -35 -30 -20 -77 -47 -105 -61 -27 -14 -67 -37 -87 -52
-20 -15 -63 -45 -95 -67 -124 -85 -270 -201 -374 -296 -86 -79 -86 -76 2 -208
66 -98 254 -287 315 -316 18 -8 36 -20 39 -25 5 -8 39 -26 200 -109 64 -33
176 -81 189 -81 6 0 21 -9 34 -18 l24 -18 -24 -38 c-13 -20 -40 -55 -60 -77
-21 -22 -38 -46 -38 -53 0 -7 -13 -22 -30 -34 -16 -13 -30 -27 -30 -33 0 -6
-22 -41 -48 -78 -26 -36 -54 -81 -61 -98 -7 -18 -17 -33 -20 -33 -4 0 -18 -24
-30 -52 -13 -29 -36 -80 -51 -113 -30 -64 -91 -248 -109 -330 -13 -58 -30
-293 -26 -345 2 -19 4 -57 5 -85 2 -53 36 -230 48 -249 3 -6 16 -38 28 -72 11
-33 42 -98 67 -143 26 -46 47 -86 47 -90 0 -12 181 -193 235 -235 28 -21 74
-50 102 -63 29 -13 55 -28 58 -33 8 -12 131 -50 199 -61 57 -10 116 3 116 23
0 5 -25 41 -56 81 -30 39 -69 101 -87 137 -17 36 -34 67 -38 70 -7 6 -29 78
-29 98 0 6 9 12 20 12 11 0 20 -4 20 -8 0 -21 106 -129 167 -170 67 -45 227
-112 270 -112 33 0 35 12 13 75 -20 59 -27 125 -12 125 5 0 21 -14 38 -31 47
-50 114 -95 184 -124 77 -32 157 -55 164 -48 3 3 11 1 18 -5 13 -11 97 -9 193
4 45 6 48 5 36 -10 -8 -9 -16 -14 -19 -11 -3 3 -10 1 -16 -4 -6 -5 -72 -39
-146 -77 -74 -38 -145 -79 -158 -91 -12 -13 -29 -23 -36 -23 -7 0 -21 -9 -31
-20 -10 -11 -26 -20 -35 -20 -9 0 -29 -11 -43 -24 -14 -13 -39 -33 -55 -45
-17 -12 -34 -31 -38 -43 -4 -12 -17 -31 -30 -41 -13 -10 -24 -23 -24 -30 0 -6
-22 -57 -50 -113 -27 -56 -50 -106 -50 -111 0 -4 -16 -44 -35 -88 -19 -44 -35
-88 -35 -97 0 -16 -7 -35 -52 -134 -10 -22 -18 -45 -18 -50 0 -5 -14 -27 -30
-48 -17 -22 -30 -46 -30 -53 0 -7 -4 -13 -8 -13 -5 0 -18 -19 -28 -42 -10 -23
-28 -56 -39 -73 -11 -16 -31 -55 -45 -85 -14 -30 -39 -77 -56 -105 -17 -27
-52 -95 -79 -150 -26 -55 -65 -136 -86 -180 -54 -113 -104 -231 -124 -295 -10
-30 -21 -59 -25 -65 -5 -5 -13 -30 -20 -54 -11 -42 -10 -45 14 -68 14 -13 26
-28 26 -33 0 -5 24 -24 54 -42 29 -18 78 -49 108 -69 30 -20 64 -40 76 -43 12
-4 22 -11 22 -16 0 -4 18 -15 40 -24 22 -9 57 -26 78 -39 20 -13 66 -35 102
-50 36 -15 79 -35 95 -44 116 -62 579 -230 810 -294 61 -17 136 -39 168 -50
32 -11 95 -26 140 -35 45 -8 111 -23 147 -33 63 -18 174 -38 335 -61 44 -6 99
-16 122 -21 56 -12 285 -35 443 -45 284 -17 761 -2 1005 31 182 25 438 65 499
79 261 58 351 80 416 101 41 13 111 34 155 48 124 39 318 107 330 116 5 5 37
18 70 29 33 11 97 39 141 61 45 23 85 41 90 41 8 1 98 46 264 134 30 16 75 43
100 61 25 18 54 35 66 39 11 3 29 15 41 25 11 10 37 30 59 44 21 14 56 41 78
59 l39 34 -12 52 c-6 29 -23 71 -38 95 -15 23 -57 101 -94 172 -79 155 -148
287 -176 335 -11 19 -50 94 -88 165 -38 72 -71 132 -74 135 -4 3 -19 30 -35
60 -16 30 -40 71 -53 90 -13 19 -23 38 -23 42 0 6 -89 159 -107 184 -5 5 -12
17 -18 26 -76 122 -198 268 -223 268 -7 0 -12 6 -12 14 0 7 -28 37 -62 67 -35
29 -65 56 -68 60 -13 16 -164 119 -175 119 -7 0 -15 7 -19 15 -3 8 -10 15 -16
15 -5 0 -44 22 -86 50 -42 27 -81 51 -87 53 -6 2 -7 9 -3 15 4 8 35 12 84 12
81 0 252 23 312 41 180 55 341 146 475 267 63 57 75 66 85 56 20 -20 -61 -142
-135 -205 -123 -104 -125 -114 -21 -106 40 3 82 10 92 15 11 6 58 20 106 31
200 47 459 186 609 326 128 119 227 274 287 450 44 127 54 205 54 410 1 185
-21 366 -57 472 -8 24 -15 51 -15 61 0 17 -37 140 -80 272 -30 91 -129 340
-146 367 -20 32 -18 41 15 58 16 8 35 20 43 27 7 7 24 19 38 26 27 14 135 93
215 157 66 52 200 189 236 243 17 23 33 42 37 42 4 0 25 33 47 74 l39 74 -28
36 c-42 56 -255 236 -392 331 -23 17 -87 62 -141 100 -54 39 -105 75 -114 80
-9 6 -27 17 -40 26 -13 9 -55 35 -94 60 -109 68 -133 90 -156 144 -12 27 -27
64 -34 80 -27 64 -65 166 -65 176 0 6 -13 39 -30 75 -16 35 -34 81 -40 102 -5
22 -23 68 -39 103 -16 35 -32 80 -36 99 -4 19 -11 41 -15 50 -26 54 -42 97
-70 185 -18 55 -36 105 -40 110 -5 6 -21 49 -35 95 -15 47 -32 94 -39 105 -7
11 -23 52 -36 90 -13 39 -38 104 -57 145 -19 41 -41 89 -49 107 -28 61 -116
134 -418 345 -61 43 -131 90 -156 105 -25 14 -76 46 -114 71 -38 25 -103 63
-145 85 -42 22 -83 46 -91 52 -19 15 -232 124 -320 163 -143 64 -318 116 -530
157 -175 35 -198 37 -420 40 -129 2 -275 0 -325 -4z m512 -161 c147 -17 233
-32 239 -41 3 -5 16 -9 30 -9 13 0 24 -3 24 -7 0 -5 -100 -9 -223 -11 -220 -2
-416 -14 -512 -31 -219 -39 -366 -72 -410 -91 -11 -5 -74 -24 -140 -43 -133
-38 -290 -94 -368 -131 -29 -13 -63 -27 -77 -31 -41 -12 -139 -75 -151 -97 -6
-11 -26 -66 -46 -121 -19 -56 -47 -129 -62 -162 -16 -33 -32 -76 -36 -95 -4
-19 -17 -53 -28 -75 -11 -22 -35 -83 -52 -135 -68 -201 -107 -307 -213 -573
-22 -56 -28 -61 -102 -83 -30 -9 -59 -19 -65 -23 -5 -4 -46 -20 -90 -35 -44
-16 -104 -39 -133 -52 -29 -13 -56 -24 -59 -24 -4 0 -71 -32 -150 -72 -79 -39
-146 -69 -149 -65 -6 6 18 99 40 157 17 42 93 280 131 405 15 50 33 104 40
120 7 17 25 68 40 115 15 47 31 90 35 95 4 6 20 48 36 95 24 73 36 92 85 140
82 81 116 111 143 129 14 9 69 50 123 91 93 72 324 228 388 264 17 9 37 21 45
26 48 30 169 100 174 100 3 0 43 18 88 39 190 90 270 122 393 156 151 41 340
74 475 82 52 3 97 7 100 10 8 7 345 -6 437 -17z m-1307 -2230 c0 -5 -33 -31
-72 -57 -40 -25 -84 -54 -98 -63 -14 -9 -68 -40 -120 -70 -52 -29 -108 -62
-125 -72 -16 -10 -79 -47 -140 -83 -170 -98 -229 -136 -308 -193 -39 -30 -83
-59 -97 -67 -25 -12 -108 -33 -164 -41 -16 -2 -73 -15 -125 -28 -53 -14 -143
-34 -201 -46 -58 -12 -116 -25 -130 -30 -14 -4 -45 -13 -70 -20 -25 -7 -58
-17 -75 -21 -16 -5 -66 -17 -110 -28 -44 -11 -91 -23 -105 -29 -14 -5 -88 -26
-165 -47 -77 -21 -144 -41 -150 -45 -5 -4 -68 -22 -138 -39 -123 -31 -130 -32
-148 -15 -54 49 -13 89 271 272 52 34 100 65 106 70 6 5 20 13 32 16 12 4 22
11 22 15 0 4 19 18 43 31 23 13 62 37 87 55 48 33 170 95 189 95 14 0 14 -13
-1 -28 -23 -23 19 -13 95 22 40 18 100 41 132 51 33 9 65 20 70 25 6 4 55 22
110 38 55 17 127 40 160 50 33 11 96 30 140 42 44 12 90 26 103 31 22 9 309
83 382 99 19 4 69 15 110 24 41 9 102 23 135 32 33 8 96 22 140 30 44 8 100
19 125 23 64 12 90 12 90 1z m2120 -1261 c59 -55 193 -139 223 -139 10 0 56
-37 100 -83 71 -72 131 -121 242 -200 31 -22 29 -26 -33 -49 -46 -18 -49 -18
-107 1 -130 42 -142 44 -262 38 -122 -5 -224 -29 -292 -68 -36 -21 -65 -12
-54 17 3 9 -2 14 -14 14 -55 0 -78 94 -63 254 13 147 28 218 47 233 9 7 40 17
69 23 30 6 54 16 54 21 0 15 29 -5 90 -62z m-3112 -80 c2 -10 -30 -35 -93 -74
-111 -69 -252 -184 -298 -244 -17 -22 -40 -41 -50 -41 -12 0 -16 4 -10 14 42
71 198 230 277 282 123 81 167 97 174 63z m3977 -90 c10 -15 35 -264 35 -344
0 -63 -12 -140 -22 -151 -11 -10 -180 52 -241 88 -68 41 -68 41 -49 62 11 12
23 28 28 37 8 15 15 14 79 -7 39 -13 75 -23 81 -24 19 0 24 26 34 178 8 132
18 172 41 172 4 0 11 -5 14 -11z m-2145 -264 c41 -18 118 -43 170 -55 52 -13
103 -27 113 -32 37 -19 250 -39 440 -43 109 -2 201 -5 203 -8 3 -2 -7 -18 -21
-35 -38 -45 -31 -66 15 -42 42 23 31 -29 -22 -104 -16 -21 -28 -45 -28 -52 0
-7 -6 -19 -13 -26 -15 -16 -36 -103 -28 -116 15 -22 54 -20 86 4 17 13 35 24
39 24 4 0 28 18 54 39 78 65 200 131 310 167 133 44 212 45 327 8 124 -41 181
-84 337 -252 11 -13 28 -22 37 -20 23 4 27 104 6 163 -8 25 -15 47 -15 49 0 5
128 56 140 56 6 0 10 -15 10 -32 0 -42 -46 -244 -64 -283 -66 -144 -90 -188
-130 -242 -50 -65 -134 -143 -203 -186 -23 -14 -44 -31 -48 -38 -15 -23 22
-40 98 -46 73 -6 76 -7 62 -25 -7 -11 -37 -38 -67 -59 -162 -120 -196 -157
-145 -160 83 -5 157 4 297 36 75 17 110 19 110 6 0 -5 -30 -48 -66 -96 -119
-161 -341 -363 -504 -459 -64 -38 -275 -140 -335 -161 -27 -10 -54 -22 -60
-26 -19 -14 -375 -128 -453 -145 -42 -9 -81 -20 -87 -24 -11 -8 -75 -20 -212
-41 -111 -17 -252 -1 -486 56 -166 41 -207 56 -207 75 0 4 40 68 88 141 90
137 161 257 201 341 31 66 41 71 87 52 55 -23 120 -14 176 24 l45 31 59 -30
c32 -16 70 -29 85 -29 39 0 124 47 164 91 29 33 34 43 25 59 -15 28 -30 25
-86 -17 -66 -51 -120 -53 -184 -5 -51 37 -84 41 -102 11 -16 -25 -79 -59 -111
-59 -13 0 -32 6 -42 14 -17 13 -17 17 20 122 20 60 43 123 50 139 21 48 35
142 35 235 0 73 -4 94 -26 138 -14 29 -36 60 -48 70 -21 16 -23 28 -29 148 -3
72 -12 152 -20 180 -8 27 -20 72 -26 99 -20 86 -52 185 -61 185 -4 0 -11 11
-14 25 -3 13 -20 46 -36 72 -60 97 -62 103 -49 119 15 19 39 14 139 -31z
m2833 -142 c17 -39 21 -67 21 -150 0 -56 -5 -112 -11 -125 -6 -13 -20 -50 -32
-83 -41 -109 -78 -174 -149 -258 -63 -74 -116 -115 -120 -93 -2 9 6 33 16 53
44 82 92 195 107 250 9 32 20 67 25 78 23 55 48 176 57 273 9 112 49 136 86
55z m-5433 -3 c8 -14 5 -34 -9 -77 -19 -57 -49 -249 -54 -348 -2 -43 -5 -50
-24 -53 -12 -2 -26 -9 -32 -16 -19 -22 -32 -116 -36 -260 -2 -76 -8 -143 -12
-147 -8 -8 -98 49 -118 75 -22 28 -50 27 -80 -4 -28 -29 -28 -32 -27 -140 1
-146 20 -273 51 -355 4 -11 18 -51 30 -90 13 -38 43 -110 67 -159 24 -49 44
-95 44 -103 0 -8 8 -27 18 -41 11 -15 32 -52 48 -82 15 -30 39 -68 51 -83 13
-16 23 -33 23 -38 0 -6 11 -25 25 -43 14 -18 25 -41 24 -52 0 -11 -3 -13 -6
-6 -2 6 -15 12 -28 12 -14 0 -41 17 -68 45 -25 25 -49 45 -54 45 -5 0 -15 10
-23 21 -8 12 -30 40 -47 63 -18 22 -33 45 -33 49 0 4 -16 24 -35 44 -42 43
-96 128 -88 137 4 3 -1 12 -10 19 -15 12 -77 155 -77 180 0 6 -6 24 -14 39
-13 25 -21 55 -45 183 -22 115 3 445 37 489 5 6 13 29 17 51 4 22 10 45 14 50
4 6 13 28 20 50 16 49 103 203 148 265 115 155 250 300 278 300 8 0 19 -9 25
-20z m1175 -172 c-25 -151 -25 -235 1 -250 7 -5 10 -17 7 -28 -3 -11 0 -20 6
-20 6 0 11 5 11 10 0 6 11 10 25 10 14 0 25 -4 25 -9 0 -18 33 -21 63 -6 31
15 80 13 145 -7 41 -12 41 -41 0 -71 -36 -27 -102 -36 -183 -23 -98 14 -105
-7 -42 -133 43 -86 124 -172 190 -201 84 -37 117 -54 117 -61 0 -4 -18 -22
-41 -40 -87 -72 -158 -153 -146 -166 16 -16 82 12 140 60 77 64 106 97 107
120 0 9 3 17 8 17 186 8 344 96 413 232 46 91 66 249 45 355 -7 35 -6 44 7 49
9 3 73 -28 157 -78 l141 -83 -5 -115 c-10 -240 -101 -426 -286 -583 -36 -30
-87 -65 -115 -77 -27 -12 -77 -35 -110 -50 -64 -30 -81 -36 -220 -76 -80 -24
-87 -28 -65 -36 67 -25 330 20 446 77 28 14 55 25 59 25 4 0 -14 -22 -41 -49
-55 -55 -199 -133 -279 -151 -27 -7 -61 -16 -75 -21 -14 -5 -41 -11 -62 -13
-20 -2 -46 -9 -58 -16 -44 -23 -167 -10 -295 32 -179 60 -338 155 -403 242
-12 17 -29 34 -37 39 -8 4 -15 13 -15 18 0 6 -14 31 -32 56 -50 74 -124 254
-158 386 -17 67 -38 141 -46 165 -30 92 -14 132 54 132 30 0 82 -41 82 -64 0
-20 67 -86 86 -86 17 0 19 9 20 72 1 44 6 74 13 76 6 2 11 12 11 21 0 25 59
140 89 176 56 65 138 138 181 160 66 35 74 33 65 -17z m4660 -192 l59 -54 -12
-82 c-8 -60 -20 -96 -43 -134 -49 -79 -99 -136 -121 -136 -24 0 -33 23 -19 48
12 23 29 167 34 298 6 136 13 140 102 60z m-5406 -277 c54 -58 89 -103 93
-123 11 -50 44 -159 56 -189 16 -38 15 -92 -1 -106 -19 -15 -88 19 -147 75
-68 63 -109 158 -123 282 -11 106 -6 152 19 152 9 0 55 -41 103 -91z m3951
-1340 c0 -34 -112 -151 -193 -202 -27 -17 -29 -17 -122 24 -128 56 -127 67 10
90 82 13 159 37 235 73 62 29 70 31 70 15z m-2644 -71 c52 -2 94 -6 94 -10 0
-13 -42 -36 -110 -62 -36 -13 -89 -37 -118 -52 -48 -25 -54 -26 -69 -11 -14
14 -14 20 1 68 20 61 39 78 79 73 16 -2 71 -5 123 -6z m-508 -87 c32 -11 82
-35 111 -53 81 -51 237 -184 282 -241 38 -48 41 -55 37 -103 -5 -60 -40 -113
-75 -113 -18 -1 -29 12 -52 58 -76 149 -125 195 -248 230 -43 12 -100 29 -127
37 -55 17 -140 20 -266 9 -47 -4 -83 -5 -80 -2 25 27 246 165 285 179 63 22
64 22 133 -1z m-267 -251 c117 -7 210 -17 254 -29 39 -10 88 -22 110 -25 68
-12 71 -15 100 -84 16 -37 36 -85 46 -107 41 -94 49 -175 18 -175 -11 0 -52
31 -112 85 -75 67 -358 170 -446 163 -46 -4 -56 -34 -14 -44 282 -64 508 -209
557 -356 10 -31 16 -62 14 -70 -3 -7 -27 -24 -53 -37 -56 -28 -105 -24 -144
13 -14 13 -54 38 -87 54 -63 32 -226 82 -265 82 -47 0 -101 -25 -151 -70 -54
-49 -58 -74 -10 -64 22 5 30 1 41 -18 10 -20 10 -31 -3 -64 -8 -21 -27 -84
-42 -139 -14 -55 -35 -119 -45 -143 -11 -23 -20 -68 -21 -100 -2 -52 2 -62 39
-117 53 -79 96 -197 90 -250 -5 -45 -37 -97 -102 -166 -62 -65 -93 -76 -153
-54 -55 21 -176 137 -208 200 -11 22 -31 60 -46 85 -36 63 -43 164 -19 295 18
95 58 307 82 425 15 74 77 290 91 315 7 11 18 33 27 50 25 51 59 80 136 121
98 51 98 67 3 62 -60 -2 -73 0 -76 13 -3 18 124 156 135 146 3 -4 13 2 20 13
11 16 18 18 33 10 10 -5 101 -14 201 -20z m2263 -104 c19 -8 37 -24 41 -37 17
-53 77 -169 107 -207 19 -23 49 -50 68 -60 82 -43 97 -51 133 -68 31 -16 37
-23 37 -51 0 -37 -18 -179 -27 -207 -10 -34 -186 -200 -260 -244 -41 -25 -109
-54 -160 -69 -80 -23 -106 -25 -298 -26 -142 -2 -230 2 -270 11 -196 43 -328
126 -421 264 -58 85 -63 100 -70 206 l-7 102 34 12 c19 6 72 31 119 54 82 40
89 42 205 47 66 3 131 10 145 15 14 6 52 16 85 22 33 7 76 17 95 22 45 13 217
95 250 120 24 18 152 105 158 107 1 0 18 -5 36 -13z m-978 -913 c65 -50 193
-109 284 -131 140 -33 341 -48 465 -33 229 26 312 60 494 203 l61 48 6 -25
c11 -45 -6 -83 -113 -252 -146 -232 -299 -460 -319 -478 -7 -5 -23 -28 -38
-50 -55 -86 -222 -290 -244 -299 -8 -3 -26 7 -40 22 -25 26 -44 49 -130 152
-32 39 -138 181 -165 220 -125 186 -165 248 -230 360 -66 115 -137 287 -137
335 0 16 5 15 33 -11 17 -16 50 -44 73 -61z m-2038 -132 c3 -134 -2 -151 -75
-249 -39 -52 -99 -174 -113 -234 -6 -24 -20 -88 -31 -143 -25 -128 -44 -147
-109 -102 -44 29 -57 67 -36 108 9 18 16 36 16 42 0 15 44 107 52 107 4 0 10
15 14 34 3 19 12 37 20 40 8 3 14 19 14 35 0 16 5 33 11 36 6 4 8 13 5 20 -2
7 2 16 10 19 8 3 14 12 14 21 0 8 9 24 20 35 11 11 15 20 9 20 -8 0 -8 4 -2
13 5 6 15 31 22 55 7 24 28 74 47 112 19 38 34 72 34 77 0 18 52 84 63 80 8
-2 13 -43 15 -126z"/>
<path d="M6739 5001 c-51 -33 -135 -118 -173 -175 -26 -38 -34 -76 -17 -76 32
0 271 230 271 261 0 27 -29 24 -81 -10z"/>
<path d="M6504 4964 c-102 -77 -194 -177 -194 -214 0 -5 9 -10 20 -10 37 0
255 204 255 238 0 29 -30 24 -81 -14z"/>
<path d="M3674 4622 c-86 -64 -154 -133 -154 -157 0 -48 64 -16 191 96 60 53
79 76 77 92 -5 37 -33 30 -114 -31z"/>
<path d="M2511 8319 c-14 -41 -14 -59 0 -59 6 0 9 9 6 20 -3 10 -1 20 3 22 4
2 11 13 14 26 11 35 -11 26 -23 -9z"/>
<path d="M2480 8218 c-7 -18 -13 -39 -13 -45 1 -7 -3 -13 -8 -13 -5 0 -9 -9
-9 -20 0 -37 16 -20 29 30 7 27 17 52 22 56 11 6 12 24 1 24 -4 0 -14 -15 -22
-32z"/>
<path d="M2419 8038 c-11 -40 -26 -79 -31 -85 -6 -7 -8 -20 -4 -28 3 -8 1 -15
-5 -15 -6 0 -9 -7 -6 -15 4 -8 2 -17 -3 -20 -12 -8 -13 -25 -1 -25 4 0 15 24
24 53 9 28 27 85 41 125 30 84 29 82 16 82 -5 0 -19 -33 -31 -72z"/>
<path d="M2335 7783 c-9 -32 -19 -65 -22 -73 -4 -8 -5 -19 -4 -24 1 -5 -3 -13
-10 -17 -7 -4 -13 -23 -13 -43 -1 -20 -4 -36 -7 -36 -4 0 -14 -28 -24 -62 -9
-35 -22 -68 -27 -75 -5 -7 -7 -17 -3 -23 3 -5 1 -10 -4 -10 -6 0 -11 -6 -11
-14 0 -25 -39 -63 -87 -86 -27 -12 -50 -25 -53 -29 -3 -3 -31 -19 -62 -35 -32
-16 -58 -33 -58 -38 0 -5 -4 -6 -10 -3 -5 3 -10 1 -10 -5 0 -6 -4 -8 -10 -5
-5 3 -10 1 -10 -5 0 -6 -12 -15 -27 -21 -15 -5 -55 -30 -89 -54 -35 -25 -67
-45 -72 -45 -5 0 -25 -16 -45 -35 -20 -19 -40 -35 -46 -35 -5 0 -18 -10 -28
-23 -10 -13 -20 -23 -23 -23 -11 2 -95 -73 -89 -78 2 -3 18 6 34 20 17 15 50
40 75 57 25 17 63 45 86 62 107 79 247 171 316 206 23 12 48 28 56 35 7 8 18
14 24 14 6 0 40 17 75 37 54 32 65 43 74 77 6 21 14 46 19 55 5 9 19 50 30 91
12 41 37 122 56 180 37 116 38 120 24 120 -5 0 -17 -26 -25 -57z"/>
<path d="M1448 6865 c-26 -34 -22 -42 7 -15 25 23 32 40 18 40 -5 0 -16 -11
-25 -25z"/>
<path d="M1367 6794 c-16 -19 -34 -34 -40 -34 -6 0 -32 -21 -58 -47 -27 -27
-66 -64 -87 -83 -22 -19 -38 -38 -36 -41 2 -3 -6 -13 -17 -22 -13 -12 -19 -30
-19 -62 0 -25 5 -45 11 -45 5 0 7 -4 4 -10 -3 -5 -2 -10 3 -10 9 0 5 89 -4 99
-5 5 112 119 219 214 61 55 80 78 60 76 -5 0 -21 -16 -36 -35z"/>
<path d="M1130 6416 c0 -8 6 -21 14 -29 8 -8 21 -30 29 -50 9 -19 25 -45 36
-56 12 -12 18 -21 15 -21 -4 0 10 -20 30 -44 20 -24 36 -49 36 -55 0 -12 135
-152 147 -152 4 -1 33 -24 64 -53 60 -55 139 -112 152 -108 4 1 7 -3 7 -8 0
-10 148 -85 163 -82 4 1 7 -2 7 -6 0 -5 18 -17 40 -27 22 -10 40 -21 40 -25 0
-4 -11 -15 -25 -24 -14 -9 -25 -22 -25 -29 0 -6 -16 -29 -35 -50 -37 -40 -41
-47 -26 -47 16 0 131 149 126 162 -3 7 -56 38 -118 68 -166 82 -248 139 -381
268 -126 123 -190 207 -263 350 -17 34 -33 42 -33 18z"/>
<path d="M9152 6357 c-12 -13 -22 -28 -22 -33 0 -6 -18 -30 -39 -54 -22 -25
-64 -73 -95 -108 -49 -56 -104 -108 -204 -193 -17 -14 -53 -41 -81 -58 -27
-18 -55 -39 -62 -47 -6 -8 -27 -21 -45 -30 -18 -9 -35 -22 -38 -31 -3 -8 14
-52 38 -96 24 -45 47 -93 51 -107 4 -14 13 -32 20 -40 12 -15 74 -182 114
-308 11 -34 27 -97 36 -140 8 -42 19 -95 25 -117 5 -22 15 -104 21 -182 16
-185 -1 -409 -37 -516 -13 -39 -24 -80 -24 -91 0 -12 -7 -30 -15 -40 -8 -11
-15 -27 -15 -35 0 -9 -7 -29 -16 -46 -9 -16 -30 -56 -46 -88 -44 -88 -110
-175 -208 -276 -56 -57 -145 -131 -157 -131 -5 0 -20 -12 -34 -26 -13 -14 -42
-35 -64 -46 -22 -12 -42 -24 -45 -28 -8 -12 -204 -107 -271 -131 -64 -23 -93
-47 -43 -35 16 4 31 11 34 14 3 4 16 8 30 10 14 1 27 7 28 12 2 6 8 8 13 4 5
-3 9 0 9 5 0 6 8 11 18 11 10 0 26 6 37 13 11 7 41 21 68 31 26 10 47 22 47
27 0 6 17 17 38 25 20 9 53 28 72 42 58 44 100 72 110 72 5 0 14 9 20 20 6 11
17 20 24 20 15 0 56 42 56 58 0 6 6 9 14 6 8 -3 25 11 42 36 16 23 48 63 72
88 23 25 42 51 42 57 0 6 11 26 25 45 13 18 22 36 20 40 -3 5 1 10 9 13 8 3
24 32 36 64 12 32 26 63 32 70 5 7 7 16 4 22 -3 5 0 11 8 14 8 3 22 41 32 86
10 45 22 81 27 81 5 0 6 9 2 19 -3 11 -1 22 5 26 6 4 10 21 9 39 -2 17 1 37 5
45 12 19 21 351 9 351 -5 0 -7 25 -5 60 3 38 1 60 -6 60 -7 0 -9 13 -5 35 3
21 1 41 -7 49 -6 8 -9 24 -5 35 3 10 2 22 -3 25 -6 3 -13 27 -17 53 -8 58 -32
154 -47 191 -6 15 -12 29 -13 32 -1 3 -4 12 -7 20 -4 8 -21 58 -39 110 -17 52
-37 102 -44 110 -7 8 -18 32 -24 52 -7 20 -23 53 -36 73 -30 43 -58 96 -53
100 2 1 18 10 36 19 17 9 32 21 32 27 0 6 4 8 9 5 5 -3 12 1 15 9 3 9 16 19
28 24 13 5 66 44 117 87 52 44 105 88 120 99 14 11 28 24 30 29 2 5 19 26 38
47 20 22 32 39 28 39 -3 0 7 11 24 25 16 14 33 34 36 45 3 10 14 22 23 25 15
5 66 94 58 102 -1 2 -12 -7 -24 -20z"/>
<path d="M1752 5496 c-17 -24 -28 -46 -25 -50 3 -3 1 -6 -6 -6 -7 0 -9 -4 -6
-10 3 -5 1 -10 -4 -10 -9 0 -41 -61 -41 -77 0 -15 24 16 47 60 14 29 36 66 48
82 31 42 37 55 27 55 -5 0 -23 -20 -40 -44z"/>
<path d="M1651 5317 c-16 -20 -43 -88 -37 -95 7 -7 7 -7 39 50 24 45 23 74 -2
45z"/>
<path d="M1576 5156 c-16 -29 -26 -58 -22 -64 3 -6 1 -12 -4 -14 -6 -2 -12
-20 -13 -41 -1 -20 -5 -37 -8 -37 -4 0 -14 -39 -24 -87 -9 -49 -22 -98 -27
-110 -6 -12 -8 -40 -5 -62 3 -23 1 -41 -4 -41 -5 0 -9 -65 -9 -145 0 -80 4
-145 9 -145 4 0 11 80 13 178 4 116 12 201 23 247 47 193 69 273 85 300 10 17
21 40 25 53 12 40 -9 23 -39 -32z"/>
<path d="M1478 4371 c-11 -45 -10 -81 1 -81 5 0 12 -21 15 -47 10 -73 38 -173
48 -173 5 0 6 -5 2 -11 -3 -6 -2 -14 3 -18 5 -3 22 -39 37 -78 26 -68 41 -91
52 -80 3 2 -13 40 -35 83 -22 44 -43 91 -46 107 -4 15 -11 27 -17 27 -5 0 -6
4 -3 10 3 5 -5 56 -19 112 -14 57 -26 121 -28 143 l-3 40 -7 -34z"/>
<path d="M1653 3833 c12 -21 29 -50 36 -65 8 -16 25 -35 38 -43 12 -9 23 -22
23 -29 0 -8 15 -27 33 -42 17 -15 32 -30 32 -33 0 -6 121 -120 162 -153 12 -9
24 -14 27 -11 3 4 6 1 6 -6 0 -7 5 -9 10 -6 6 3 13 0 16 -8 5 -15 44 -31 44
-19 0 4 -34 32 -76 62 -103 74 -216 189 -294 299 -65 91 -100 123 -57 54z"/>
<path d="M2090 3411 c0 -15 74 -58 150 -87 41 -16 77 -32 80 -35 3 -4 64 -22
135 -39 72 -17 138 -36 148 -41 10 -5 26 -7 36 -4 12 4 21 0 25 -11 6 -15 -12
-57 -107 -254 -12 -24 -22 -49 -22 -55 0 -5 -6 -16 -12 -23 -15 -16 -17 -32
-4 -32 5 0 17 21 27 48 10 26 23 54 30 62 6 8 24 44 39 80 15 36 36 80 47 97
11 18 17 37 13 43 -3 5 -1 10 4 10 6 0 11 9 11 20 0 22 -46 38 -245 85 -66 16
-122 31 -125 35 -3 3 -36 18 -75 33 -38 16 -87 39 -107 53 -41 26 -48 28 -48
15z"/>
<path d="M7820 3316 c-14 -7 -77 -26 -140 -41 -63 -15 -140 -34 -170 -43 -30
-8 -72 -17 -92 -19 -33 -4 -38 -8 -38 -32 0 -25 28 -80 56 -111 20 -22 80
-114 126 -195 22 -38 59 -101 83 -140 67 -109 291 -497 326 -565 10 -19 29
-50 43 -69 14 -19 26 -40 26 -46 0 -6 12 -28 27 -49 14 -22 61 -107 103 -190
43 -83 85 -164 94 -181 15 -28 37 -79 85 -189 12 -27 21 -66 21 -87 0 -22 5
-39 10 -39 15 0 12 78 -4 108 -8 15 -22 51 -31 79 -9 29 -21 55 -26 58 -5 4
-9 15 -9 25 0 10 -7 26 -16 34 -8 9 -12 16 -7 16 4 0 3 4 -2 8 -6 4 -21 32
-35 62 -13 30 -32 64 -42 76 -10 11 -18 24 -18 30 0 11 -52 117 -61 124 -10 8
-79 143 -79 155 0 5 -9 16 -20 22 -10 7 -24 31 -31 53 -7 22 -18 40 -26 40 -8
0 -12 4 -9 9 4 5 3 11 -1 13 -5 1 -25 38 -46 81 -21 42 -42 77 -47 77 -6 0
-10 6 -10 13 0 7 -15 35 -33 62 -19 28 -47 77 -64 110 -17 33 -42 77 -56 98
-14 21 -29 47 -32 58 -4 10 -10 19 -15 19 -4 0 -11 11 -14 25 -4 14 -11 25
-16 25 -6 0 -10 6 -10 14 0 7 -10 24 -22 38 -13 14 -24 32 -26 39 -2 8 -11 22
-19 32 -9 9 -13 20 -10 24 4 3 -2 12 -13 20 -11 8 -28 33 -39 56 -11 23 -33
60 -50 82 -16 22 -32 50 -36 63 -5 18 -3 22 18 22 13 0 27 3 31 8 4 4 11 7 14
7 4 0 27 6 52 12 25 7 91 22 148 34 56 12 102 25 102 29 0 4 6 7 13 7 19 -1
77 24 77 34 0 12 -10 11 -40 -5z"/>
<path d="M2492 2795 c-19 -41 -14 -53 8 -20 22 32 25 45 12 45 -5 0 -14 -11
-20 -25z"/>
<path d="M2440 2701 c-12 -24 -13 -41 -2 -41 8 0 32 43 32 55 0 13 -21 3 -30
-14z"/>
<path d="M2398 2608 c-7 -13 -11 -26 -10 -30 1 -5 -2 -8 -7 -8 -4 0 -23 -34
-41 -75 -18 -41 -39 -80 -46 -86 -8 -6 -11 -15 -8 -20 3 -5 1 -9 -4 -9 -4 0
-19 -24 -32 -52 -13 -29 -36 -74 -52 -99 -15 -25 -28 -53 -28 -62 0 -9 -8 -21
-17 -26 -10 -6 -14 -11 -10 -11 5 0 1 -7 -8 -16 -9 -10 -14 -25 -12 -35 3 -11
1 -19 -4 -19 -9 0 -39 -53 -39 -70 0 -27 20 -3 48 58 17 37 38 78 46 92 9 14
29 54 47 90 17 36 47 94 66 130 74 135 140 270 132 270 -5 0 -14 -10 -21 -22z"/>
<path d="M2052 1935 c-13 -18 -21 -39 -17 -44 3 -6 2 -11 -3 -11 -9 0 -66
-119 -63 -132 0 -5 -4 -8 -10 -8 -6 0 -9 -7 -5 -15 3 -8 1 -15 -4 -15 -4 0
-16 -22 -25 -50 -9 -27 -20 -52 -25 -55 -5 -3 -7 -12 -3 -20 3 -8 0 -15 -7
-15 -6 0 -8 -4 -5 -10 3 -5 1 -10 -5 -10 -7 0 -10 -7 -6 -15 3 -8 2 -15 -2
-15 -11 0 -30 -68 -38 -137 -4 -40 -3 -63 3 -63 6 0 14 27 17 61 9 78 99 328
152 422 8 15 12 27 7 27 -4 0 -3 4 3 8 13 9 75 132 66 132 -4 0 -18 -16 -30
-35z"/>
<path d="M1840 1305 c0 -13 24 -55 32 -55 5 0 7 -4 4 -8 -9 -15 157 -162 183
-162 6 0 14 -7 17 -15 4 -8 15 -15 25 -15 10 0 19 -5 19 -10 0 -6 12 -16 28
-22 15 -7 40 -21 56 -33 30 -21 124 -70 236 -125 36 -17 94 -45 130 -62 36
-18 74 -35 85 -40 11 -4 34 -13 50 -19 17 -7 36 -11 43 -10 6 1 12 -3 12 -9 0
-6 8 -13 18 -16 43 -15 129 -47 145 -56 11 -5 69 -25 130 -44 62 -20 119 -38
127 -41 8 -4 17 -7 20 -8 3 -1 16 -6 30 -12 14 -6 64 -21 110 -33 47 -12 92
-24 100 -27 8 -4 19 -5 24 -4 5 1 12 -2 15 -7 5 -8 215 -62 241 -62 6 0 10 4
10 9 0 4 -37 16 -82 26 -46 9 -121 30 -168 45 -116 38 -303 90 -323 90 -10 0
-17 4 -17 9 0 4 -33 18 -72 31 -40 12 -98 32 -128 45 -30 12 -86 35 -125 50
-107 41 -199 82 -330 147 -201 98 -229 114 -385 217 -47 31 -90 58 -96 61 -37
18 -109 91 -125 128 -10 23 -23 42 -29 42 -5 0 -10 -2 -10 -5z"/>
<path d="M8348 1274 c-10 -19 -14 -34 -10 -34 13 1 40 46 34 57 -4 6 -15 -4
-24 -23z"/>
<path d="M8262 1172 c-34 -31 -62 -60 -62 -64 0 -17 24 -6 52 24 16 18 39 37
50 43 20 10 45 55 30 55 -4 -1 -35 -26 -70 -58z"/>
<path d="M8100 1052 c-219 -147 -405 -245 -700 -369 -158 -66 -328 -133 -339
-133 -6 0 -65 -17 -133 -39 -68 -21 -152 -46 -188 -55 -36 -10 -87 -24 -115
-31 -27 -8 -106 -26 -175 -41 -147 -30 -161 -34 -142 -41 20 -7 202 28 202 39
0 5 9 6 20 3 12 -4 27 -1 35 5 8 6 19 9 26 5 6 -4 14 -4 18 1 6 9 173 54 198
54 6 0 24 5 40 11 15 6 28 9 29 7 0 -2 7 2 15 9 8 7 33 16 54 21 103 25 160
43 163 52 2 6 8 7 13 4 6 -3 15 -1 22 4 7 6 47 21 89 35 43 14 85 33 94 42 9
9 23 14 30 11 8 -3 14 -2 14 3 0 5 10 11 23 14 49 12 239 93 302 130 11 6 55
28 98 49 43 21 96 52 119 68 22 17 46 30 53 30 6 0 22 10 35 23 14 12 26 21
28 19 5 -6 162 108 162 118 0 14 5 16 -90 -48z"/>
<path d="M3745 399 c4 -6 10 -8 13 -5 3 3 11 1 18 -5 8 -6 22 -8 31 -4 16 7
15 9 -7 15 -38 12 -62 11 -55 -1z"/>
<path d="M3830 382 c0 -8 189 -47 285 -59 94 -11 38 8 -110 37 -159 32 -175
34 -175 22z"/>
<path d="M6229 340 c-38 -11 -361 -53 -512 -66 -43 -4 -80 -11 -83 -15 -3 -5
4 -9 15 -9 50 0 277 23 281 29 3 3 39 7 80 9 41 1 77 7 81 14 4 6 16 8 28 5
12 -3 24 -1 27 5 3 5 23 8 45 7 21 -2 41 0 45 4 4 4 18 7 31 7 13 0 23 5 23
10 0 12 -24 12 -61 0z"/>
<path d="M4175 313 c17 -17 119 -33 127 -20 6 9 10 9 16 1 4 -6 61 -17 127
-24 66 -6 134 -14 150 -16 17 -2 121 -7 233 -11 111 -3 205 -10 208 -15 8 -13
288 -10 302 4 9 9 15 9 24 0 14 -14 108 -16 108 -2 0 6 32 10 75 10 48 0 75 4
75 11 0 8 -27 9 -90 5 -107 -7 -580 -8 -665 -1 -33 3 -118 10 -190 15 -129 11
-297 27 -365 35 -124 16 -144 17 -135 8z"/>
</g>
</svg>
